<svg id="Layer_1" data-name="Layer 1" xmlns="http://www.w3.org/2000/svg" viewBox="0 0 350.26 148.19"><defs><style>.cls-1{fill:#353535;}.cls-2{fill:#3e54a5;}.cls-3{fill:#7b7b7b;}</style></defs><path class="cls-1" d="M522.73,511.59a0,0,0,0,1,0-.07c1-.35,7.93-3.25,7.93-14.52,0-12.12-8.45-16.87-17.27-16.87H458.83l0,.05v14.43l0,.05h51s4.29,0,4.29,5.93-4.29,5.59-4.29,5.59H471.88l0,.05v10.65l0,0h37.94s4.29-.34,4.29,5.59-4.29,5.93-4.29,5.93h-51l0,0v14.44l0,0h54.56c8.82,0,17.27-4.74,17.27-16.86C530.66,514.84,523.71,511.94,522.73,511.59Z" transform="translate(-262.47 -394.78)"/><path class="cls-1" d="M602.29,484.76a22,22,0,0,0-13.72-4.63H540.85V543h47.72a21.93,21.93,0,0,0,13.72-4.63c5.22-4.13,10.43-11.89,10.43-26.41S607.51,488.89,602.29,484.76ZM588.92,525a11.76,11.76,0,0,1-7.25,2.39H558.19V494.6h23.48a11.76,11.76,0,0,1,7.25,2.39c2.76,2.13,5.52,6.89,5.52,14.39S591.68,522.89,588.92,525Z" transform="translate(-262.47 -394.78)"/><path class="cls-2" d="M331.66,394.78c-4.45,0-7.52,5.16-7.52,5.16l-18.58,29-18.58-29s-3.06-5.16-7.51-5.16h-17v62.84h16.25l.65-41.16,26.19,39.22,26.2-39.22.64,41.16h16.26V394.78Z" transform="translate(-262.47 -394.78)"/><path class="cls-2" d="M413.43,394.78H390.21l-33.29,62.84h19.74L382.47,446l19.35.13,19.36-.13,5.8,11.62h19.74Zm-11.61,38.06H388.4l13.42-24.9,13.42,24.9Z" transform="translate(-262.47 -394.78)"/><path class="cls-2" d="M556.75,409.15h52.56V394.78H549.54s-13.78,1.42-13.78,11.61V446c0,10.2,13.78,11.62,13.78,11.62h59.77V443.25H556.75c-3.69,0-3.8-3.87-3.8-3.87V432.2h50v-12H553V413S553.06,409.15,556.75,409.15Z" transform="translate(-262.47 -394.78)"/><path class="cls-3" d="M517.64,501.33a0,0,0,0,1,0-.07c1-.35,7.92-3.25,7.92-14.52,0-12.12-8.44-16.86-17.27-16.86H453.74l-.05,0v14.43l.05,0h51s4.29,0,4.29,5.93-4.29,5.59-4.29,5.59H466.79l-.05.05v10.65l.05.05h37.93s4.29-.34,4.29,5.59-4.29,5.93-4.29,5.93h-51l-.05,0v14.43l.05,0h54.55c8.83,0,17.27-4.74,17.27-16.86C525.56,504.58,518.61,501.68,517.64,501.33Z" transform="translate(-262.47 -394.78)"/><path class="cls-2" d="M515.13,399.41a22,22,0,0,0-13.72-4.63H453.69v62.84h47.72A22,22,0,0,0,515.13,453c5.22-4.13,10.43-11.89,10.43-26.41S520.35,403.54,515.13,399.41Zm-13.37,40.26a11.82,11.82,0,0,1-7.25,2.39H471V409.24h23.48a11.82,11.82,0,0,1,7.25,2.39c2.76,2.13,5.51,6.9,5.51,14.4S504.52,437.54,501.76,439.67Z" transform="translate(-262.47 -394.78)"/><path class="cls-3" d="M597.19,474.51a21.93,21.93,0,0,0-13.72-4.63H535.76v62.83h47.71a21.93,21.93,0,0,0,13.72-4.63c5.22-4.13,10.44-11.89,10.44-26.41S602.41,478.64,597.19,474.51Zm-13.37,40.26a11.8,11.8,0,0,1-7.25,2.39H553.09V484.34h23.48a11.74,11.74,0,0,1,7.25,2.39c2.76,2.13,5.52,6.89,5.52,14.39S586.58,512.63,583.82,514.77Z" transform="translate(-262.47 -394.78)"/></svg>